<svg xmlns="http://www.w3.org/2000/svg" xmlns:xlink="http://www.w3.org/1999/xlink" viewBox="0 0 32 32" width="28" height="28" style="" filter="none">
    <defs><linearGradient id="URX6LMZ1URzSnPjlUVmq7T1" x1="0" x2="100%" y1="0" y2="0" gradientTransform="matrix(6.123233995736766e-17, 1, -1, 6.123233995736766e-17, 16, 0)" gradientUnits="userSpaceOnUse"><stop stop-color="#75f9fd" stop-opacity="1" offset="0"></stop><stop stop-color="#1d7dea" stop-opacity="1" offset="1"></stop></linearGradient></defs>
    <g>
    <path d="M14.667 9.333v-4c0-0.736 0.597-1.333 1.333-1.333v0h12c0.736 0 1.333 0.597 1.333 1.333v0 21.333c0 0.736-0.597 1.333-1.333 1.333v0h-24c-0.736 0-1.333-0.597-1.333-1.333v0-16c0-0.736 0.597-1.333 1.333-1.333v0h10.667zM6.667 21.333v2.667h6.667v-2.667h-6.667zM18.667 21.333v2.667h6.667v-2.667h-6.667zM18.667 17.333v2.667h6.667v-2.667h-6.667zM18.667 13.333v2.667h6.667v-2.667h-6.667zM6.667 17.333v2.667h6.667v-2.667h-6.667z" fill="url(#URX6LMZ1URzSnPjlUVmq7T1)"></path>
    </g>
  </svg>